<svg width="206" height="50" viewBox="0 0 206 50" fill="none" xmlns="http://www.w3.org/2000/svg">
<mask id="mask0_83_363" style="mask-type:luminance" maskUnits="userSpaceOnUse" x="142" y="0" width="28" height="50">
<path d="M169.688 0H143V49.08H169.688V0Z" fill="white"/>
</mask>
<g mask="url(#mask0_83_363)">
<path d="M169.108 -0.00439453V10.0328L153.798 24.5338L169.108 39.0348V49.072L143.201 24.5338L169.108 -0.00439453Z" fill="white"/>
</g>
<mask id="mask1_83_363" style="mask-type:luminance" maskUnits="userSpaceOnUse" x="179" y="0" width="27" height="50">
<path d="M205.969 0H179.586V49.08H205.969V0Z" fill="white"/>
</mask>
<g mask="url(#mask1_83_363)">
<path d="M180.011 10.0328V-0.00439453L205.918 24.5338L180.011 49.072V39.0348L195.321 24.5338L180.011 10.0328Z" fill="white"/>
</g>
<path d="M187.214 24.5327L174.56 12.5474L161.906 24.5327L174.56 36.5143L187.214 24.5327Z" fill="white"/>
<path d="M3.55662 24.2523H0V10.3535H5.69059L8.72989 18.0779H8.81611L11.9847 10.3535H17.5244V24.2523H13.9678V13.1739H13.8816L10.5405 21.381H6.87613L3.64284 13.1739H3.55662V24.2523Z" fill="white"/>
<path d="M30.5626 24.5823C28.4771 24.5823 26.8443 24.3537 25.6695 23.8963C24.5056 23.4389 23.6649 22.6957 23.1476 21.6603C22.6302 20.6122 22.3716 19.1575 22.3716 17.2899C22.3716 15.4287 22.6195 13.9804 23.126 12.945C23.6433 11.8969 24.4894 11.1537 25.6695 10.709C26.8443 10.2516 28.4771 10.0229 30.5626 10.0229C32.6588 10.0229 34.2917 10.2516 35.4556 10.709C36.6304 11.1537 37.4711 11.8969 37.9776 12.945C38.4949 13.9804 38.7536 15.4287 38.7536 17.2899C38.7536 19.1575 38.4949 20.6122 37.9776 21.6603C37.4711 22.6957 36.6304 23.4389 35.4556 23.8963C34.2917 24.3537 32.6588 24.5823 30.5626 24.5823ZM30.5626 20.898C31.996 20.898 33.4348 20.8599 34.8736 20.771V13.8089C33.2786 13.7454 31.8397 13.7073 30.5626 13.7073C29.2962 13.7073 27.8682 13.7454 26.2731 13.8089V20.771C27.6957 20.8599 29.1238 20.898 30.5626 20.898Z" fill="white"/>
<path d="M51.0963 24.5823C49.0108 24.5823 47.378 24.3537 46.2032 23.8963C45.0392 23.4389 44.1986 22.6957 43.6813 21.6603C43.1639 20.6122 42.9053 19.1575 42.9053 17.2899C42.9053 15.4287 43.1532 13.9804 43.6597 12.945C44.177 11.8969 45.0231 11.1537 46.2032 10.709C47.378 10.2516 49.0108 10.0229 51.0963 10.0229C53.1925 10.0229 54.8253 10.2516 55.9893 10.709C57.1641 11.1537 58.0047 11.8969 58.5113 12.945C59.0286 13.9804 59.2873 15.4287 59.2873 17.2899C59.2873 19.1575 59.0286 20.6122 58.5113 21.6603C58.0047 22.6957 57.1641 23.4389 55.9893 23.8963C54.8253 24.3537 53.1925 24.5823 51.0963 24.5823ZM51.0963 20.898C52.5297 20.898 53.9685 20.8599 55.4073 20.771V13.8089C53.8122 13.7454 52.3734 13.7073 51.0963 13.7073C49.8299 13.7073 48.4019 13.7454 46.8068 13.8089V20.771C48.2294 20.8599 49.6575 20.898 51.0963 20.898Z" fill="white"/>
<path d="M77.2126 24.2523H63.4172V19.5262L73.0956 13.9362V13.8346H63.6759V10.3535H77.1264V15.0542L67.4265 20.6442V20.7458H77.2126V24.2523Z" fill="white"/>
<path d="M88.7771 24.2523H83.6901L80.155 10.4552V10.3535H83.841L86.5354 21.4065H86.6432L88.7556 13.0723H92.7002L94.7695 21.4065H94.8773L97.6795 10.3535H101.236V10.4552L97.507 24.2523H92.5278L90.7171 16.9853H90.6309L88.7771 24.2523Z" fill="white"/>
<path d="M108.587 10.3535H113.739L119.429 24.1506V24.2523H115.549L114.472 21.5081H107.811L106.733 24.2523H102.961V24.1506L108.587 10.3535ZM111.109 13.1739L109.04 18.4336H113.265L111.195 13.1739H111.109Z" fill="white"/>
<path d="M130.314 24.2523H126.757V19.577L120.938 10.4552V10.3535H125.205L128.568 15.9181H128.654L132.017 10.3535H136.112V10.4552L130.314 19.6278V24.2523Z" fill="white"/>
<path d="M0.667969 40.1169V31.7573H3.0606C3.62104 31.7573 4.0737 31.878 4.41859 32.1131C4.77425 32.3354 5.04369 32.6466 5.21613 33.0532C5.38858 33.4597 5.4748 33.9107 5.4748 34.3999C5.4748 34.8953 5.38858 35.34 5.21613 35.7465C5.05447 36.1531 4.79581 36.4771 4.44014 36.7121C4.07909 36.9535 3.62643 37.0678 3.08216 37.0678H1.53018V40.1169H0.667969ZM1.53018 36.1531H3.0606C3.62104 36.1531 4.01982 35.9879 4.2677 35.6449C4.5102 35.3082 4.63414 34.8953 4.63414 34.3999C4.63414 33.8917 4.5102 33.4788 4.2677 33.1548C4.01982 32.8182 3.61026 32.6466 3.03905 32.6466H1.53018V36.1531Z" fill="white"/>
<path d="M7.01807 40.1169V31.7573H9.4107C9.97114 31.7573 10.4238 31.8717 10.7687 32.0876C11.1243 32.31 11.3938 32.6149 11.5662 33.0024C11.7387 33.3772 11.8249 33.8155 11.8249 34.3236C11.8249 34.8699 11.7171 35.3527 11.5016 35.772C11.286 36.1785 10.9519 36.4771 10.51 36.6613L12.1051 40.1169H11.1136L9.6047 36.8391C9.54542 36.8391 9.48615 36.8391 9.43226 36.8391H7.88028V40.1169H7.01807ZM7.88028 35.9244H9.4107C9.97114 35.9244 10.3699 35.7847 10.6178 35.4925C10.8603 35.2066 10.9842 34.8191 10.9842 34.3236C10.9842 33.8155 10.8603 33.4089 10.6178 33.104C10.3699 32.7991 9.96036 32.6466 9.38915 32.6466H7.88028V35.9244Z" fill="white"/>
<path d="M19.402 35.9245C19.402 36.8075 19.2619 37.5697 18.9924 38.2113C18.7176 38.8592 18.3458 39.3547 17.8716 39.7105C17.4081 40.0662 16.8692 40.244 16.2549 40.244C15.6514 40.244 15.1125 40.0662 14.6383 39.7105C14.1748 39.3547 13.8084 38.8592 13.5389 38.2113C13.2641 37.5697 13.1294 36.8075 13.1294 35.9245C13.1294 35.0479 13.2641 34.2856 13.5389 33.6377C13.8084 32.9961 14.1748 32.507 14.6383 32.164C15.1125 31.8082 15.6514 31.6304 16.2549 31.6304C16.8692 31.6304 17.4081 31.8082 17.8716 32.164C18.3458 32.507 18.7176 32.9961 18.9924 33.6377C19.2619 34.2856 19.402 35.0479 19.402 35.9245ZM18.5613 35.9245C18.5613 35.2003 18.4589 34.5905 18.2596 34.095C18.0548 33.6059 17.7746 33.2311 17.4189 32.9771C17.074 32.7103 16.686 32.5705 16.2549 32.5705C15.8346 32.5705 15.4466 32.7103 15.0909 32.9771C14.746 33.2311 14.4712 33.6059 14.2718 34.095C14.067 34.5905 13.9701 35.2003 13.9701 35.9245C13.9701 36.655 14.067 37.2712 14.2718 37.7794C14.4712 38.2748 14.746 38.6433 15.0909 38.8974C15.4466 39.1515 15.8346 39.2785 16.2549 39.2785C16.686 39.2785 17.074 39.1515 17.4189 38.8974C17.7746 38.6433 18.0548 38.2748 18.2596 37.7794C18.4589 37.2712 18.5613 36.655 18.5613 35.9245Z" fill="white"/>
<path d="M25.8448 34.3491C25.6993 33.8092 25.4568 33.3772 25.1119 33.0533C24.767 32.7357 24.3359 32.5705 23.8186 32.5705C23.3982 32.5705 23.021 32.7103 22.6761 32.9771C22.3312 33.2311 22.0564 33.6059 21.857 34.095C21.6523 34.5905 21.5553 35.2003 21.5553 35.9245C21.5553 36.655 21.6523 37.2712 21.857 37.7794C22.0564 38.2748 22.3312 38.6433 22.6761 38.8974C23.0318 39.1515 23.436 39.2785 23.8832 39.2785C24.282 39.2785 24.6377 39.1896 24.9394 38.999C25.252 38.7957 25.4999 38.5099 25.6723 38.1351C25.8448 37.7667 25.9364 37.3347 25.9525 36.8392H24.0772V35.9245H26.7716V36.8392C26.7716 37.5189 26.6477 38.1224 26.4052 38.6433C26.1573 39.1515 25.8124 39.5516 25.3705 39.8375C24.9394 40.1106 24.4437 40.244 23.8832 40.244C23.2473 40.244 22.6977 40.0662 22.2235 39.7105C21.7493 39.3547 21.372 38.8592 21.1026 38.2113C20.8439 37.5697 20.7146 36.8075 20.7146 35.9245C20.7146 35.0479 20.8439 34.2856 21.1026 33.6377C21.372 32.9961 21.7385 32.507 22.2019 32.164C22.6761 31.8082 23.215 31.6304 23.8186 31.6304C24.3197 31.6304 24.7724 31.7511 25.1765 31.9861C25.5915 32.2084 25.931 32.5324 26.1896 32.9516C26.4591 33.3582 26.6423 33.8283 26.7285 34.3491H25.8448Z" fill="white"/>
<path d="M28.3997 40.1169V31.7573H30.7923C31.3527 31.7573 31.8054 31.8717 32.1503 32.0876C32.5059 32.31 32.7754 32.6149 32.9478 33.0024C33.1203 33.3772 33.2065 33.8155 33.2065 34.3236C33.2065 34.8699 33.0987 35.3527 32.8832 35.772C32.6676 36.1785 32.3335 36.4771 31.8916 36.6613L33.4867 40.1169H32.4952L30.9863 36.8391C30.927 36.8391 30.8677 36.8391 30.8138 36.8391H29.2619V40.1169H28.3997ZM29.2619 35.9244H30.7923C31.3527 35.9244 31.7515 35.7847 31.9994 35.4925C32.2419 35.2066 32.3658 34.8191 32.3658 34.3236C32.3658 33.8155 32.2419 33.4089 31.9994 33.104C31.7515 32.7991 31.342 32.6466 30.7707 32.6466H29.2619V35.9244Z" fill="white"/>
<path d="M35.0715 40.1169H34.1877L36.7959 31.7573H37.6797L40.2879 40.1169H39.3826L38.6712 37.7539H35.8044L35.0715 40.1169ZM36.0631 36.8391H38.391L37.2486 33.0786H37.2055L36.0631 36.8391Z" fill="white"/>
<path d="M41.5437 31.7573H42.5784L44.971 38.694H45.0572L47.4714 31.7573H48.5061V40.1169H47.7085V33.7646H47.6223L45.4021 40.1169H44.6261L42.4059 33.7646H42.3412V40.1169H41.5437V31.7573Z" fill="white"/>
<path d="M51.4623 31.7573V40.1169H50.6001V31.7573H51.4623Z" fill="white"/>
<path d="M58.9538 31.7573V40.1169H58.1347L54.2548 33.536H54.1901V40.1169H53.3279V31.7573H54.1685L58.0485 38.3383H58.1132V31.7573H58.9538Z" fill="white"/>
<path d="M65.68 34.3491C65.5345 33.8092 65.292 33.3772 64.9471 33.0533C64.6022 32.7357 64.1711 32.5705 63.6538 32.5705C63.2334 32.5705 62.8562 32.7103 62.5113 32.9771C62.1665 33.2311 61.8916 33.6059 61.6922 34.095C61.4875 34.5905 61.3905 35.2003 61.3905 35.9245C61.3905 36.655 61.4875 37.2712 61.6922 37.7794C61.8916 38.2748 62.1665 38.6433 62.5113 38.8974C62.867 39.1515 63.2712 39.2785 63.7184 39.2785C64.1172 39.2785 64.4729 39.1896 64.7746 38.999C65.0872 38.7957 65.3351 38.5099 65.5075 38.1351C65.68 37.7667 65.7716 37.3347 65.7877 36.8392H63.9124V35.9245H66.6068V36.8392C66.6068 37.5189 66.4829 38.1224 66.2404 38.6433C65.9925 39.1515 65.6476 39.5516 65.2057 39.8375C64.7746 40.1106 64.2789 40.244 63.7184 40.244C63.0825 40.244 62.5329 40.0662 62.0587 39.7105C61.5845 39.3547 61.2072 38.8592 60.9378 38.2113C60.6791 37.5697 60.5498 36.8075 60.5498 35.9245C60.5498 35.0479 60.6791 34.2856 60.9378 33.6377C61.2072 32.9961 61.5737 32.507 62.0371 32.164C62.5113 31.8082 63.0502 31.6304 63.6538 31.6304C64.1549 31.6304 64.6076 31.7511 65.0117 31.9861C65.4267 32.2084 65.7662 32.5324 66.0248 32.9516C66.2943 33.3582 66.4775 33.8283 66.5637 34.3491H65.68Z" fill="white"/>
<path d="M73.026 40.2445C72.5626 40.2445 72.1638 40.1429 71.8189 39.9396C71.4848 39.7363 71.2261 39.4568 71.0429 39.1011C70.8543 38.7454 70.7627 38.3388 70.7627 37.8815C70.7627 37.3923 70.892 36.9667 71.1507 36.611C71.4094 36.2553 71.7435 35.9123 72.1638 35.5692C71.9159 35.2326 71.7165 34.9086 71.5602 34.6037C71.4147 34.2861 71.3447 33.9367 71.3447 33.5619C71.3447 33.0029 71.4956 32.5456 71.7973 32.1898C72.1099 31.8341 72.5302 31.6562 73.0476 31.6562C73.4032 31.6562 73.7158 31.7452 73.9744 31.9103C74.2331 32.0628 74.4271 32.2788 74.5564 32.5456C74.6965 32.8187 74.772 33.1046 74.772 33.4095C74.772 33.816 74.6858 34.1717 74.5133 34.4767C74.3517 34.7689 74.1253 35.0357 73.8235 35.2897L73.3062 35.7471L74.8582 37.9577C74.9444 37.7544 75.0145 37.5257 75.0738 37.2717C75.1276 37.0176 75.16 36.7508 75.16 36.4586H75.936C75.936 37.0366 75.8713 37.513 75.742 37.8815C75.6234 38.2372 75.5049 38.5103 75.3755 38.6946L76.3455 40.1175H75.3755L74.8582 39.406C74.6265 39.6792 74.3463 39.8888 74.0175 40.0412C73.6834 40.1746 73.3547 40.2445 73.026 40.2445ZM74.384 38.6946L72.6811 36.2807L72.4225 36.5094C72.1045 36.8016 71.889 37.0811 71.7758 37.3479C71.6572 37.602 71.6034 37.7798 71.6034 37.8815C71.6034 38.1546 71.6572 38.4087 71.7758 38.6437C71.889 38.8661 72.0452 39.0439 72.25 39.1773C72.4656 39.3171 72.7134 39.3806 73.0044 39.3806C73.5218 39.3806 73.9798 39.1519 74.384 38.6946ZM72.8104 35.0102L73.2847 34.6037C73.484 34.4512 73.6403 34.2924 73.7589 34.1209C73.8882 33.9367 73.9529 33.7017 73.9529 33.4095C73.9529 33.2062 73.8667 33.0029 73.6942 32.7997C73.5325 32.5964 73.3332 32.4947 73.0907 32.4947C72.9021 32.4947 72.735 32.5583 72.5949 32.6726C72.4656 32.7742 72.3578 32.914 72.2716 33.0792C72.1961 33.2316 72.1638 33.4031 72.1638 33.5873C72.1638 33.8097 72.2285 34.0383 72.3578 34.2734C72.4871 34.5148 72.638 34.7562 72.8104 35.0102Z" fill="white"/>
<path d="M84.295 33.841C84.2519 33.4217 84.0795 33.0977 83.7777 32.8754C83.4867 32.6404 83.131 32.5197 82.6999 32.5197C82.2257 32.5197 81.8431 32.6594 81.5575 32.9262C81.2665 33.1803 81.1264 33.5106 81.1264 33.9172C81.1264 34.2221 81.2018 34.4698 81.3635 34.654C81.5198 34.8446 81.7084 34.9844 81.9239 35.086C82.1395 35.1876 82.3335 35.2639 82.5059 35.3147L83.2388 35.5434C83.4112 35.5942 83.6106 35.6704 83.8423 35.772C84.0687 35.8737 84.2842 36.0198 84.489 36.204C84.7046 36.3755 84.877 36.5978 85.0063 36.8646C85.1464 37.1187 85.2219 37.449 85.2219 37.8556C85.2219 38.3002 85.1195 38.7068 84.9201 39.0752C84.7153 39.431 84.4243 39.7232 84.0363 39.9391C83.6591 40.1551 83.2011 40.2695 82.6568 40.2695C81.8916 40.2695 81.288 40.0598 80.8462 39.6342C80.3989 39.215 80.1564 38.656 80.1133 37.9572H80.997C81.024 38.2812 81.1156 38.5416 81.2773 38.7449C81.4335 38.9482 81.6329 39.1006 81.8808 39.2023C82.1233 39.3039 82.382 39.3547 82.6568 39.3547C82.9855 39.3547 83.2819 39.2976 83.5406 39.1769C83.7992 39.0435 84.004 38.8656 84.1657 38.6433C84.3219 38.4082 84.4028 38.1351 84.4028 37.8302C84.4028 37.5634 84.3273 37.3411 84.1872 37.1695C84.0579 36.9853 83.8855 36.8392 83.6699 36.7376C83.4543 36.6232 83.2226 36.5216 82.9801 36.4327L82.0964 36.1532C81.5467 35.969 81.1102 35.6958 80.7815 35.3401C80.4636 34.9844 80.3073 34.527 80.3073 33.968C80.3073 33.4979 80.4151 33.0914 80.6306 32.7484C80.8462 32.3926 81.1318 32.1258 81.4928 31.9353C81.8646 31.732 82.2742 31.6304 82.7215 31.6304C83.1795 31.6304 83.5891 31.732 83.9501 31.9353C84.3058 32.1258 84.586 32.3863 84.7908 32.723C85.0063 33.0469 85.1195 33.4217 85.1357 33.841H84.295Z" fill="white"/>
<path d="M92.785 35.9245C92.785 36.8075 92.6449 37.5697 92.3755 38.2113C92.1007 38.8592 91.7288 39.3547 91.2546 39.7105C90.7912 40.0662 90.2523 40.244 89.638 40.244C89.0344 40.244 88.4955 40.0662 88.0213 39.7105C87.5579 39.3547 87.1914 38.8592 86.922 38.2113C86.6472 37.5697 86.5125 36.8075 86.5125 35.9245C86.5125 35.0479 86.6472 34.2856 86.922 33.6377C87.1914 32.9961 87.5579 32.507 88.0213 32.164C88.4955 31.8082 89.0344 31.6304 89.638 31.6304C90.2523 31.6304 90.7912 31.8082 91.2546 32.164C91.7288 32.507 92.1007 32.9961 92.3755 33.6377C92.6449 34.2856 92.785 35.0479 92.785 35.9245ZM91.9444 35.9245C91.9444 35.2003 91.842 34.5905 91.6426 34.095C91.4378 33.6059 91.1576 33.2311 90.802 32.9771C90.4571 32.7103 90.0691 32.5705 89.638 32.5705C89.2176 32.5705 88.8296 32.7103 88.474 32.9771C88.1291 33.2311 87.8543 33.6059 87.6549 34.095C87.4501 34.5905 87.3531 35.2003 87.3531 35.9245C87.3531 36.655 87.4501 37.2712 87.6549 37.7794C87.8543 38.2748 88.1291 38.6433 88.474 38.8974C88.8296 39.1515 89.2176 39.2785 89.638 39.2785C90.0691 39.2785 90.4571 39.1515 90.802 38.8974C91.1576 38.6433 91.4378 38.2748 91.6426 37.7794C91.842 37.2712 91.9444 36.655 91.9444 35.9245Z" fill="white"/>
<path d="M94.3779 40.1169V31.7573H98.6243V32.6466H95.2401V35.467H98.3225V36.3818H95.2401V40.1169H94.3779Z" fill="white"/>
<path d="M99.8684 32.6466V31.7573H105.193V32.6466H102.951V40.1169H102.089V32.6466H99.8684Z" fill="white"/>
<path d="M107.969 40.1169L106.029 31.7573H106.891L108.379 38.567H108.443L109.952 31.7573H110.922L112.453 38.567H112.517L114.005 31.7573H114.867L112.927 40.1169H112.043L110.469 33.4343H110.426L108.853 40.1169H107.969Z" fill="white"/>
<path d="M116.373 40.1169H115.489L118.097 31.7573H118.981L121.589 40.1169H120.684L119.973 37.7539H117.106L116.373 40.1169ZM117.365 36.8391H119.693L118.55 33.0786H118.507L117.365 36.8391Z" fill="white"/>
<path d="M122.845 40.1169V31.7573H125.238C125.798 31.7573 126.251 31.8717 126.596 32.0876C126.951 32.31 127.221 32.6149 127.393 33.0024C127.566 33.3772 127.652 33.8155 127.652 34.3236C127.652 34.8699 127.544 35.3527 127.329 35.772C127.113 36.1785 126.779 36.4771 126.337 36.6613L127.932 40.1169H126.941L125.432 36.8391C125.373 36.8391 125.313 36.8391 125.259 36.8391H123.707V40.1169H122.845ZM123.707 35.9244H125.238C125.798 35.9244 126.197 35.7847 126.445 35.4925C126.687 35.2066 126.811 34.8191 126.811 34.3236C126.811 33.8155 126.687 33.4089 126.445 33.104C126.197 32.7991 125.788 32.6466 125.216 32.6466H123.707V35.9244Z" fill="white"/>
<path d="M129.237 40.1169V31.7573H133.527V32.6466H130.099V35.467H133.289V36.3818H130.099V39.2276H133.57V40.1169H129.237Z" fill="white"/>
</svg>
