<svg width="197" height="128" viewBox="0 0 197 128" fill="none" xmlns="http://www.w3.org/2000/svg">
<mask id="mask0_44_53" style="mask-type:luminance" maskUnits="userSpaceOnUse" x="55" y="0" width="37" height="72">
<path d="M91.8115 0.831787H55.7992V71.0642H91.8115V0.831787Z" fill="white"/>
</mask>
<g mask="url(#mask0_44_53)">
<path d="M91.1396 0.821289V15.1856L70.3877 35.9375L91.1396 56.6894V71.0537L56.0234 35.9375L91.1396 0.821289Z" fill="white"/>
</g>
<mask id="mask1_44_53" style="mask-type:luminance" maskUnits="userSpaceOnUse" x="105" y="0" width="37" height="72">
<path d="M141.098 0.832031H105.149V71.0645H141.098V0.832031Z" fill="white"/>
</mask>
<g mask="url(#mask1_44_53)">
<path d="M105.914 15.1858V0.821533L141.03 35.9378L105.914 71.054V56.6897L126.666 35.9378L105.914 15.1858Z" fill="white"/>
</g>
<path d="M115.673 35.9378L98.5268 18.7913L81.3751 35.9378L98.5268 53.0895L115.673 35.9378Z" fill="white"/>
<path d="M4.26479 99.5036H11.6248L17.6648 112.384L23.7048 99.5036H31.0648V122.664H25.0248V108.904L19.9048 120.384H15.4248L10.3048 108.904V122.664H4.26479V99.5036ZM47.9935 99.0636C49.8069 99.0636 51.4869 99.3702 53.0335 99.9836C54.5802 100.57 55.9269 101.41 57.0735 102.504C58.2202 103.57 59.1002 104.837 59.7135 106.304C60.3535 107.744 60.6735 109.33 60.6735 111.064C60.6735 112.797 60.3535 114.397 59.7135 115.864C59.1002 117.33 58.2202 118.61 57.0735 119.704C55.9269 120.797 54.5802 121.65 53.0335 122.264C51.4869 122.85 49.8069 123.144 47.9935 123.144C46.1535 123.144 44.4602 122.85 42.9135 122.264C41.3669 121.65 40.0202 120.797 38.8735 119.704C37.7535 118.61 36.8735 117.33 36.2335 115.864C35.5935 114.397 35.2735 112.797 35.2735 111.064C35.2735 109.304 35.5935 107.704 36.2335 106.264C36.8735 104.824 37.7535 103.57 38.8735 102.504C40.0202 101.41 41.3669 100.57 42.9135 99.9836C44.4602 99.3702 46.1535 99.0636 47.9935 99.0636ZM48.0735 104.824C47.3002 104.824 46.5669 104.984 45.8735 105.304C45.1802 105.597 44.5669 106.024 44.0335 106.584C43.5002 107.144 43.0735 107.81 42.7535 108.584C42.4602 109.357 42.3135 110.184 42.3135 111.064C42.3135 111.97 42.4602 112.81 42.7535 113.584C43.0735 114.357 43.5002 115.037 44.0335 115.624C44.5669 116.184 45.1802 116.624 45.8735 116.944C46.5669 117.264 47.3002 117.424 48.0735 117.424C48.8469 117.424 49.5669 117.264 50.2335 116.944C50.9269 116.624 51.5269 116.184 52.0335 115.624C52.5402 115.037 52.9269 114.357 53.1935 113.584C53.4869 112.81 53.6335 111.97 53.6335 111.064C53.6335 110.184 53.4869 109.357 53.1935 108.584C52.9269 107.81 52.5402 107.144 52.0335 106.584C51.5269 106.024 50.9269 105.597 50.2335 105.304C49.5669 104.984 48.8469 104.824 48.0735 104.824ZM75.2982 99.0636C77.1116 99.0636 78.7916 99.3702 80.3382 99.9836C81.8849 100.57 83.2316 101.41 84.3782 102.504C85.5249 103.57 86.4049 104.837 87.0182 106.304C87.6582 107.744 87.9782 109.33 87.9782 111.064C87.9782 112.797 87.6582 114.397 87.0182 115.864C86.4049 117.33 85.5249 118.61 84.3782 119.704C83.2316 120.797 81.8849 121.65 80.3382 122.264C78.7916 122.85 77.1116 123.144 75.2982 123.144C73.4582 123.144 71.7649 122.85 70.2182 122.264C68.6716 121.65 67.3249 120.797 66.1782 119.704C65.0582 118.61 64.1782 117.33 63.5382 115.864C62.8982 114.397 62.5782 112.797 62.5782 111.064C62.5782 109.304 62.8982 107.704 63.5382 106.264C64.1782 104.824 65.0582 103.57 66.1782 102.504C67.3249 101.41 68.6716 100.57 70.2182 99.9836C71.7649 99.3702 73.4582 99.0636 75.2982 99.0636ZM75.3782 104.824C74.6049 104.824 73.8716 104.984 73.1782 105.304C72.4849 105.597 71.8716 106.024 71.3382 106.584C70.8049 107.144 70.3782 107.81 70.0582 108.584C69.7649 109.357 69.6182 110.184 69.6182 111.064C69.6182 111.97 69.7649 112.81 70.0582 113.584C70.3782 114.357 70.8049 115.037 71.3382 115.624C71.8716 116.184 72.4849 116.624 73.1782 116.944C73.8716 117.264 74.6049 117.424 75.3782 117.424C76.1516 117.424 76.8716 117.264 77.5382 116.944C78.2316 116.624 78.8316 116.184 79.3382 115.624C79.8449 115.037 80.2316 114.357 80.4982 113.584C80.7916 112.81 80.9382 111.97 80.9382 111.064C80.9382 110.184 80.7916 109.357 80.4982 108.584C80.2316 107.81 79.8449 107.144 79.3382 106.584C78.8316 106.024 78.2316 105.597 77.5382 105.304C76.8716 104.984 76.1516 104.824 75.3782 104.824ZM90.7535 99.5036H111.114V103.824L99.5135 117.344H111.354V122.664H90.3535V118.344L101.954 104.824H90.7535V99.5036ZM112.511 99.5036H119.831L124.031 115.544L128.231 99.5036H134.911L139.151 115.544L143.311 99.5036H150.311L142.431 122.664H135.391L131.431 107.864L127.351 122.664H120.311L112.511 99.5036ZM157.892 99.5036H164.972L174.612 122.664H167.292L161.252 106.344L155.012 122.664H147.972L157.892 99.5036ZM154.292 113.944H167.772V118.944H154.292V113.944ZM171.835 99.5036H178.715L183.835 108.984L188.835 99.5036H195.675L185.355 118.904H182.275L171.835 99.5036ZM180.395 112.344H187.275V122.664H180.395V112.344Z" fill="white"/>
</svg>
